<svg width="41" height="41" viewBox="0 0 41 41" fill="none" xmlns="http://www.w3.org/2000/svg">
<rect x="0.5" y="0.5" width="40" height="40" rx="15" fill="#EDEDED"/>
<path d="M20.5 29.5L20.3999 29.3499C19.7053 28.308 19.358 27.787 18.8991 27.4098C18.4929 27.0759 18.0248 26.8254 17.5216 26.6726C16.9533 26.5 16.3271 26.5 15.0748 26.5H13.7C12.5799 26.5 12.0198 26.5 11.592 26.282C11.2157 26.0903 10.9097 25.7843 10.718 25.408C10.5 24.9802 10.5 24.4201 10.5 23.3V14.7C10.5 13.5799 10.5 13.0198 10.718 12.592C10.9097 12.2157 11.2157 11.9097 11.592 11.718C12.0198 11.5 12.5799 11.5 13.7 11.5H14.1C16.3402 11.5 17.4603 11.5 18.316 11.936C19.0686 12.3195 19.6805 12.9314 20.064 13.684C20.5 14.5397 20.5 15.6598 20.5 17.9M20.5 29.5V17.9M20.5 29.5L20.6001 29.3499C21.2947 28.308 21.642 27.787 22.1009 27.4098C22.5071 27.0759 22.9752 26.8254 23.4784 26.6726C24.0467 26.5 24.6729 26.5 25.9252 26.5H27.3C28.4201 26.5 28.9802 26.5 29.408 26.282C29.7843 26.0903 30.0903 25.7843 30.282 25.408C30.5 24.9802 30.5 24.4201 30.5 23.3V14.7C30.5 13.5799 30.5 13.0198 30.282 12.592C30.0903 12.2157 29.7843 11.9097 29.408 11.718C28.9802 11.5 28.4201 11.5 27.3 11.5H26.9C24.6598 11.5 23.5397 11.5 22.684 11.936C21.9314 12.3195 21.3195 12.9314 20.936 13.684C20.5 14.5397 20.5 15.6598 20.5 17.9" stroke="#797979" stroke-width="2" stroke-linecap="round" stroke-linejoin="round"/>
</svg>
