<svg width="20" height="23" viewBox="0 0 20 23" fill="none" xmlns="http://www.w3.org/2000/svg">
<g id="Apple Icon">
<path id="Vector" d="M16.1758 21.4507C14.9782 22.6116 13.6706 22.4283 12.4119 21.8784C11.0798 21.3162 9.85773 21.2918 8.45234 21.8784C6.69256 22.6361 5.76379 22.4161 4.71281 21.4507C-1.25091 15.3037 -0.371013 5.94264 6.39926 5.60046C8.04906 5.686 9.19781 6.50479 10.1632 6.57811C11.6053 6.28481 12.9862 5.44159 14.526 5.55157C16.3714 5.69822 17.7645 6.43146 18.6811 7.7513C14.8682 10.0366 15.7726 15.0593 19.2677 16.4646C18.5711 18.2977 17.6668 20.1186 16.1636 21.4629L16.1758 21.4507ZM10.041 5.52713C9.85773 2.80192 12.0697 0.553316 14.6116 0.333344C14.966 3.48628 11.7519 5.83265 10.041 5.52713Z" fill="black"/>
</g>
</svg>
