<svg width="17" height="18" viewBox="0 0 17 18" fill="none" xmlns="http://www.w3.org/2000/svg">
<path d="M11.75 1.5V9.75M15.5 8.25V3C15.5 2.17157 14.8284 1.5 14 1.5H3.93032C2.81978 1.5 1.87535 2.31025 1.70648 3.40787L0.898791 8.65787C0.689105 10.0208 1.74363 11.25 3.12263 11.25H5.75C6.16421 11.25 6.5 11.5858 6.5 12V14.6506C6.5 15.672 7.328 16.5 8.34938 16.5C8.593 16.5 8.81377 16.3565 8.91271 16.1339L11.552 10.1954C11.6724 9.92455 11.941 9.75 12.2374 9.75H14C14.8284 9.75 15.5 9.07843 15.5 8.25Z" stroke="black" stroke-width="1.5" stroke-linecap="round" stroke-linejoin="round"/>
</svg>
