<svg width="18" height="19" viewBox="0 0 18 19" fill="none" xmlns="http://www.w3.org/2000/svg">
<g id="briefcase-01">
<path id="Icon" d="M12 5.75C12 5.05252 12 4.70378 11.9233 4.41766C11.7153 3.6412 11.1088 3.03472 10.3323 2.82667C10.0462 2.75 9.69748 2.75 9 2.75C8.30252 2.75 7.95378 2.75 7.66766 2.82667C6.8912 3.03472 6.28472 3.6412 6.07667 4.41766C6 4.70378 6 5.05252 6 5.75M3.9 16.25H14.1C14.9401 16.25 15.3601 16.25 15.681 16.0865C15.9632 15.9427 16.1927 15.7132 16.3365 15.431C16.5 15.1101 16.5 14.6901 16.5 13.85V8.15C16.5 7.30992 16.5 6.88988 16.3365 6.56901C16.1927 6.28677 15.9632 6.0573 15.681 5.91349C15.3601 5.75 14.9401 5.75 14.1 5.75H3.9C3.05992 5.75 2.63988 5.75 2.31901 5.91349C2.03677 6.0573 1.8073 6.28677 1.66349 6.56901C1.5 6.88988 1.5 7.30992 1.5 8.15V13.85C1.5 14.6901 1.5 15.1101 1.66349 15.431C1.8073 15.7132 2.03677 15.9427 2.31901 16.0865C2.63988 16.25 3.05992 16.25 3.9 16.25Z" stroke="black" stroke-width="1.5" stroke-linecap="round" stroke-linejoin="round"/>
</g>
</svg>
