<svg width="18" height="16" viewBox="0 0 18 16" fill="none" xmlns="http://www.w3.org/2000/svg">
<path id="Icon" d="M1.5 4.64036C1.5 3.36612 1.5 2.72899 1.77248 2.2423C2.01217 1.81418 2.39462 1.46612 2.86502 1.24799C3.3998 1 4.09987 1 5.5 1H12.5C13.9001 1 14.6002 1 15.135 1.24799C15.6054 1.46612 15.9878 1.81418 16.2275 2.2423C16.5 2.72899 16.5 3.36612 16.5 4.64036V8.73577C16.5 10.01 16.5 10.6471 16.2275 11.1338C15.9878 11.562 15.6054 11.91 15.135 12.1282C14.6002 12.3761 13.9001 12.3761 12.5 12.3761H10.4031C9.88308 12.3761 9.62306 12.3761 9.37435 12.4226C9.15369 12.4638 8.94017 12.532 8.73957 12.6252C8.51347 12.7304 8.31043 12.8782 7.90434 13.1739L5.91646 14.6212C5.56973 14.8736 5.39636 14.9999 5.25045 15C5.12356 15.0001 5.00352 14.9476 4.92436 14.8574C4.83333 14.7536 4.83333 14.5515 4.83333 14.1474V12.3761C4.05836 12.3761 3.67087 12.3761 3.35295 12.2986C2.49022 12.0882 1.81635 11.4749 1.58519 10.6898C1.5 10.4005 1.5 10.0478 1.5 9.3425V4.64036Z" stroke="#252525" stroke-width="1.75" stroke-linecap="round" stroke-linejoin="round"/>
</svg>
