<svg width="23" height="23" viewBox="0 0 23 23" fill="none" xmlns="http://www.w3.org/2000/svg">
<g id="FaceBook Icon">
<path id="Vector" d="M22.5 11.3333C22.5 5.25825 17.5751 0.333344 11.5 0.333344C5.42491 0.333344 0.5 5.25816 0.5 11.3333C0.5 16.8237 4.52256 21.3745 9.78125 22.1997V14.513H6.98828V11.3333H9.78125V8.90991C9.78125 6.15303 11.4235 4.63022 13.9361 4.63022C15.1396 4.63022 16.3984 4.84506 16.3984 4.84506V7.55209H15.0114C13.6448 7.55209 13.2188 8.40004 13.2188 9.26998V11.3333H16.2695L15.7818 14.513H13.2188V22.1997C18.4774 21.3745 22.5 16.8238 22.5 11.3333Z" fill="#1877F2"/>
<path id="Vector_2" d="M15.7818 14.513L16.2695 11.3333H13.2188V9.26998C13.2188 8.39995 13.6449 7.55209 15.0114 7.55209H16.3984V4.84506C16.3984 4.84506 15.1396 4.63022 13.9361 4.63022C11.4235 4.63022 9.78125 6.15303 9.78125 8.90991V11.3333H6.98828V14.513H9.78125V22.1997C10.3498 22.2888 10.9245 22.3335 11.5 22.3333C12.0755 22.3335 12.6502 22.2888 13.2188 22.1997V14.513H15.7818Z" fill="white"/>
</g>
</svg>
