<svg width="23" height="23" viewBox="0 0 23 23" fill="none" xmlns="http://www.w3.org/2000/svg">
<g id="Google Icon">
<path id="Vector" d="M22.2861 9.17899H21.4V9.13334H11.5V13.5333H17.7167C16.8097 16.0947 14.3727 17.9333 11.5 17.9333C7.85515 17.9333 4.9 14.9782 4.9 11.3333C4.9 7.68849 7.85515 4.73334 11.5 4.73334C13.1825 4.73334 14.7131 5.36804 15.8786 6.40479L18.9899 3.29344C17.0253 1.46249 14.3974 0.333344 11.5 0.333344C5.42525 0.333344 0.5 5.25859 0.5 11.3333C0.5 17.4081 5.42525 22.3333 11.5 22.3333C17.5748 22.3333 22.5 17.4081 22.5 11.3333C22.5 10.5958 22.4241 9.87584 22.2861 9.17899Z" fill="#FFC107"/>
<path id="Vector_2" d="M1.76831 6.21339L5.38236 8.86384C6.36026 6.44274 8.72856 4.73334 11.5 4.73334C13.1825 4.73334 14.7131 5.36804 15.8786 6.40479L18.9899 3.29344C17.0253 1.46249 14.3974 0.333344 11.5 0.333344C7.27491 0.333344 3.61081 2.71869 1.76831 6.21339Z" fill="#FF3D00"/>
<path id="Vector_3" d="M11.5 22.3333C14.3413 22.3333 16.923 21.246 18.875 19.4777L15.4705 16.5968C14.329 17.465 12.9341 17.9345 11.5 17.9333C8.63893 17.9333 6.20957 16.109 5.29437 13.563L1.70728 16.3268C3.52778 19.8891 7.22487 22.3333 11.5 22.3333Z" fill="#4CAF50"/>
<path id="Vector_4" d="M22.286 9.17901H21.4V9.13336H11.5V13.5334H17.7167C17.2828 14.7524 16.5013 15.8176 15.4688 16.5974L15.4704 16.5963L18.875 19.4772C18.6341 19.6961 22.5 16.8334 22.5 11.3334C22.5 10.5958 22.4241 9.87586 22.286 9.17901Z" fill="#1976D2"/>
</g>
</svg>
