<svg width="70" height="60" viewBox="0 0 70 60" fill="none" xmlns="http://www.w3.org/2000/svg">
<path d="M21.2344 34H18.7031V17.8125C18.7031 17.1979 18.7031 16.6719 18.7031 16.2344C18.7135 15.7865 18.724 15.3802 18.7344 15.0156C18.7552 14.6406 18.7812 14.2604 18.8125 13.875C18.4896 14.2083 18.1875 14.4948 17.9062 14.7344C17.625 14.9635 17.276 15.25 16.8594 15.5938L14.25 17.6875L12.8906 15.9219L19.0781 11.1562H21.2344V34Z" fill="black"/>
<path d="M35.543 18.8672L29.168 36H27.2461L33.6328 18.8672H35.543Z" fill="black"/>
<path d="M50.376 36H40.085V34.5068L44.2852 30.2422C45.0658 29.4544 45.721 28.7526 46.251 28.1367C46.7881 27.5208 47.1963 26.9157 47.4756 26.3213C47.7549 25.7197 47.8945 25.0609 47.8945 24.3447C47.8945 23.4567 47.6296 22.7799 47.0996 22.3145C46.5768 21.8418 45.8857 21.6055 45.0264 21.6055C44.2744 21.6055 43.6084 21.7344 43.0283 21.9922C42.4482 22.25 41.8538 22.6152 41.2451 23.0879L40.2891 21.8848C40.7044 21.5339 41.1556 21.2223 41.6426 20.9502C42.1367 20.6781 42.6631 20.4632 43.2217 20.3057C43.7874 20.1481 44.389 20.0693 45.0264 20.0693C45.9932 20.0693 46.8275 20.2376 47.5293 20.5742C48.2311 20.9108 48.7718 21.3906 49.1514 22.0137C49.5381 22.6367 49.7314 23.3779 49.7314 24.2373C49.7314 25.068 49.5667 25.8415 49.2373 26.5576C48.9079 27.2666 48.446 27.972 47.8516 28.6738C47.2572 29.3685 46.5625 30.1061 45.7676 30.8867L42.3516 34.292V34.3672H50.376V36Z" fill="black"/>
<path d="M5.23682 47.5386C4.72477 47.5386 4.26351 47.6274 3.85303 47.8052C3.44678 47.9787 3.09977 48.2326 2.81201 48.5669C2.52848 48.897 2.31055 49.2969 2.1582 49.7666C2.00586 50.2363 1.92969 50.7653 1.92969 51.3535C1.92969 52.1322 2.05029 52.8092 2.2915 53.3848C2.53695 53.9561 2.90088 54.3983 3.3833 54.7114C3.86995 55.0246 4.47721 55.1812 5.20508 55.1812C5.61979 55.1812 6.00911 55.1473 6.37305 55.0796C6.74121 55.0076 7.0988 54.9188 7.4458 54.813V55.7524C7.10726 55.8794 6.75179 55.9725 6.37939 56.0317C6.007 56.0952 5.56478 56.127 5.05273 56.127C4.10905 56.127 3.31982 55.9323 2.68506 55.543C2.05452 55.1494 1.58057 54.5951 1.26318 53.8799C0.950033 53.1647 0.793457 52.3205 0.793457 51.3472C0.793457 50.6447 0.890788 50.0036 1.08545 49.4238C1.28434 48.8398 1.5721 48.3363 1.94873 47.9131C2.32959 47.4899 2.79508 47.1641 3.34521 46.9355C3.89958 46.7028 4.53434 46.5864 5.24951 46.5864C5.71924 46.5864 6.17204 46.633 6.60791 46.7261C7.04378 46.8192 7.43734 46.9525 7.78857 47.126L7.35693 48.04C7.06071 47.9046 6.73486 47.7882 6.37939 47.6909C6.02816 47.5894 5.6473 47.5386 5.23682 47.5386ZM15.2979 52.5088C15.2979 53.0801 15.2238 53.59 15.0757 54.0386C14.9276 54.4871 14.7139 54.8659 14.4346 55.1748C14.1553 55.4837 13.8167 55.7207 13.4189 55.8857C13.0254 56.0465 12.5789 56.127 12.0796 56.127C11.6141 56.127 11.1867 56.0465 10.7974 55.8857C10.4123 55.7207 10.078 55.4837 9.79443 55.1748C9.51514 54.8659 9.2972 54.4871 9.14062 54.0386C8.98828 53.59 8.91211 53.0801 8.91211 52.5088C8.91211 51.7471 9.04118 51.0996 9.29932 50.5664C9.55745 50.029 9.92562 49.6206 10.4038 49.3413C10.8862 49.0578 11.4596 48.916 12.124 48.916C12.7588 48.916 13.3132 49.0578 13.7871 49.3413C14.2653 49.6248 14.6356 50.0353 14.8979 50.5728C15.1646 51.106 15.2979 51.7513 15.2979 52.5088ZM10.0039 52.5088C10.0039 53.0674 10.078 53.5519 10.2261 53.9624C10.3742 54.3729 10.6027 54.6903 10.9116 54.9146C11.2205 55.1388 11.6183 55.251 12.105 55.251C12.5874 55.251 12.9831 55.1388 13.292 54.9146C13.6051 54.6903 13.8358 54.3729 13.9839 53.9624C14.132 53.5519 14.2061 53.0674 14.2061 52.5088C14.2061 51.9544 14.132 51.4762 13.9839 51.0742C13.8358 50.668 13.6073 50.3548 13.2983 50.1348C12.9894 49.9147 12.5895 49.8047 12.0986 49.8047C11.375 49.8047 10.8439 50.0438 10.5054 50.522C10.1711 51.0002 10.0039 51.6624 10.0039 52.5088ZM24.6733 48.916C25.4393 48.916 26.0169 49.117 26.4062 49.519C26.7956 49.9168 26.9902 50.5579 26.9902 51.4424V56H25.9492V51.4932C25.9492 50.9303 25.8265 50.5093 25.5811 50.23C25.3398 49.9465 24.9801 49.8047 24.502 49.8047C23.8291 49.8047 23.3403 49.9993 23.0356 50.3887C22.731 50.778 22.5786 51.3514 22.5786 52.1089V56H21.5312V51.4932C21.5312 51.1165 21.4762 50.8034 21.3662 50.5537C21.2604 50.304 21.0996 50.1178 20.8838 49.9951C20.6722 49.8682 20.4035 49.8047 20.0776 49.8047C19.6164 49.8047 19.2461 49.8999 18.9668 50.0903C18.6875 50.2808 18.4844 50.5643 18.3574 50.9409C18.2347 51.3133 18.1733 51.7725 18.1733 52.3184V56H17.1196V49.043H17.9702L18.1289 50.0269H18.186C18.3257 49.7856 18.5013 49.5825 18.7129 49.4175C18.9245 49.2524 19.1615 49.1276 19.4238 49.043C19.6862 48.9583 19.9655 48.916 20.2617 48.916C20.7907 48.916 21.2329 49.0155 21.5884 49.2144C21.9481 49.409 22.2083 49.7074 22.3691 50.1094H22.4263C22.6548 49.7074 22.9679 49.409 23.3657 49.2144C23.7635 49.0155 24.1994 48.916 24.6733 48.916ZM32.4238 48.916C33.2913 48.916 33.9832 49.2144 34.4995 49.811C35.0158 50.4077 35.2739 51.3049 35.2739 52.5024C35.2739 53.2938 35.1554 53.9582 34.9185 54.4956C34.6815 55.033 34.3472 55.4393 33.9155 55.7144C33.4881 55.9894 32.9824 56.127 32.3984 56.127C32.0303 56.127 31.7065 56.0783 31.4272 55.981C31.1479 55.8836 30.9089 55.7524 30.71 55.5874C30.5111 55.4224 30.346 55.2425 30.2148 55.0479H30.1387C30.1514 55.2129 30.1662 55.4118 30.1831 55.6445C30.2043 55.8773 30.2148 56.0804 30.2148 56.2539V59.1104H29.1548V49.043H30.0244L30.1641 50.0713H30.2148C30.3503 49.8597 30.5153 49.6672 30.71 49.4937C30.9046 49.3159 31.1416 49.1763 31.4209 49.0747C31.7044 48.9689 32.0387 48.916 32.4238 48.916ZM32.2397 49.8047C31.7573 49.8047 31.368 49.8978 31.0718 50.084C30.7798 50.2702 30.5661 50.5495 30.4307 50.9219C30.2952 51.29 30.2233 51.7534 30.2148 52.312V52.5151C30.2148 53.1034 30.2783 53.6006 30.4053 54.0068C30.5365 54.4131 30.7502 54.722 31.0464 54.9336C31.3468 55.1452 31.7489 55.251 32.2524 55.251C32.6841 55.251 33.0438 55.1346 33.3315 54.9019C33.6193 54.6691 33.833 54.3454 33.9727 53.9307C34.1165 53.5117 34.1885 53.0314 34.1885 52.4897C34.1885 51.6688 34.0277 51.0171 33.7061 50.5347C33.3887 50.048 32.8999 49.8047 32.2397 49.8047ZM38.1748 56H37.1147V46.123H38.1748V56ZM43.0815 48.916C43.674 48.916 44.1818 49.0472 44.605 49.3096C45.0282 49.5719 45.3519 49.9401 45.5762 50.4141C45.8005 50.8838 45.9126 51.4339 45.9126 52.0645V52.7183H41.1074C41.1201 53.535 41.3232 54.1571 41.7168 54.5845C42.1104 55.0119 42.6647 55.2256 43.3799 55.2256C43.82 55.2256 44.2093 55.1854 44.5479 55.105C44.8864 55.0246 45.2376 54.9061 45.6016 54.7495V55.6763C45.2503 55.8328 44.9012 55.9471 44.5542 56.019C44.2114 56.091 43.8052 56.127 43.3354 56.127C42.6668 56.127 42.0828 55.9915 41.5835 55.7207C41.0884 55.4456 40.7033 55.0436 40.4282 54.5146C40.1532 53.9857 40.0156 53.3382 40.0156 52.5723C40.0156 51.8232 40.1405 51.1758 40.3901 50.6299C40.644 50.0798 40.9995 49.6566 41.4565 49.3604C41.9178 49.0641 42.4595 48.916 43.0815 48.916ZM43.0688 49.7793C42.506 49.7793 42.0575 49.9634 41.7231 50.3315C41.3888 50.6997 41.1899 51.2139 41.1265 51.874H44.8081C44.8039 51.4593 44.7383 51.0954 44.6113 50.7822C44.4886 50.4648 44.3003 50.2194 44.0464 50.0459C43.7925 49.8682 43.4666 49.7793 43.0688 49.7793ZM49.9497 55.2637C50.1232 55.2637 50.3009 55.2489 50.4829 55.2192C50.6649 55.1896 50.813 55.1536 50.9272 55.1113V55.9302C50.8045 55.9852 50.6331 56.0317 50.4131 56.0698C50.1973 56.1079 49.9857 56.127 49.7783 56.127C49.4102 56.127 49.0758 56.0635 48.7754 55.9365C48.4749 55.8053 48.2337 55.5853 48.0518 55.2764C47.874 54.9674 47.7852 54.54 47.7852 53.9941V49.8682H46.7949V49.354L47.7915 48.9414L48.2104 47.4307H48.8452V49.043H50.8828V49.8682H48.8452V53.9624C48.8452 54.3983 48.9447 54.7241 49.1436 54.9399C49.3467 55.1558 49.6154 55.2637 49.9497 55.2637ZM55.0151 48.916C55.6076 48.916 56.1154 49.0472 56.5386 49.3096C56.9618 49.5719 57.2855 49.9401 57.5098 50.4141C57.734 50.8838 57.8462 51.4339 57.8462 52.0645V52.7183H53.041C53.0537 53.535 53.2568 54.1571 53.6504 54.5845C54.0439 55.0119 54.5983 55.2256 55.3135 55.2256C55.7536 55.2256 56.1429 55.1854 56.4814 55.105C56.82 55.0246 57.1712 54.9061 57.5352 54.7495V55.6763C57.1839 55.8328 56.8348 55.9471 56.4878 56.019C56.145 56.091 55.7388 56.127 55.269 56.127C54.6004 56.127 54.0164 55.9915 53.5171 55.7207C53.022 55.4456 52.6369 55.0436 52.3618 54.5146C52.0868 53.9857 51.9492 53.3382 51.9492 52.5723C51.9492 51.8232 52.0741 51.1758 52.3237 50.6299C52.5776 50.0798 52.9331 49.6566 53.3901 49.3604C53.8514 49.0641 54.3931 48.916 55.0151 48.916ZM55.0024 49.7793C54.4396 49.7793 53.991 49.9634 53.6567 50.3315C53.3224 50.6997 53.1235 51.2139 53.0601 51.874H56.7417C56.7375 51.4593 56.6719 51.0954 56.5449 50.7822C56.4222 50.4648 56.2339 50.2194 55.98 50.0459C55.7261 49.8682 55.4002 49.7793 55.0024 49.7793ZM62.1118 56.127C61.2316 56.127 60.5334 55.8265 60.0171 55.2256C59.505 54.6247 59.249 53.7318 59.249 52.5469C59.249 51.3493 59.5114 50.4458 60.0361 49.8364C60.5609 49.2228 61.2591 48.916 62.1309 48.916C62.499 48.916 62.8206 48.9647 63.0957 49.062C63.3708 49.1593 63.6077 49.2905 63.8066 49.4556C64.0055 49.6164 64.1727 49.8005 64.3081 50.0078H64.3843C64.3674 49.8766 64.3504 49.6968 64.3335 49.4683C64.3166 49.2397 64.3081 49.0535 64.3081 48.9097V46.123H65.3618V56H64.5112L64.3525 55.0098H64.3081C64.1769 55.2171 64.0098 55.4054 63.8066 55.5747C63.6077 55.744 63.3687 55.8794 63.0894 55.981C62.8143 56.0783 62.4884 56.127 62.1118 56.127ZM62.2769 55.251C63.0216 55.251 63.5485 55.0394 63.8574 54.6162C64.1663 54.193 64.3208 53.5646 64.3208 52.731V52.5405C64.3208 51.6561 64.1727 50.9769 63.8765 50.5029C63.5845 50.029 63.0513 49.792 62.2769 49.792C61.6294 49.792 61.1449 50.0417 60.8232 50.541C60.5016 51.0361 60.3408 51.7132 60.3408 52.5723C60.3408 53.4271 60.4995 54.0872 60.8169 54.5527C61.1385 55.0182 61.6252 55.251 62.2769 55.251Z" fill="black"/>
</svg>
