<svg width="41" height="41" viewBox="0 0 41 41" fill="none" xmlns="http://www.w3.org/2000/svg">
<rect x="0.5" y="0.5" width="40" height="40" rx="15" fill="#EDEDED"/>
<path d="M15.4 19.9444V22.7222M15.4 19.9444V13.2778C15.4 12.3573 16.1611 11.6111 17.1 11.6111C18.0389 11.6111 18.8 12.3573 18.8 13.2778M15.4 19.9444C15.4 19.024 14.6389 18.2778 13.7 18.2778C12.7611 18.2778 12 19.024 12 19.9444V22.1667C12 26.769 15.8056 30.5 20.5 30.5C25.1944 30.5 29 26.769 29 22.1667V16.6111C29 15.6906 28.2389 14.9444 27.3 14.9444C26.3611 14.9444 25.6 15.6906 25.6 16.6111M18.8 13.2778V19.3889M18.8 13.2778V12.1667C18.8 11.2462 19.5611 10.5 20.5 10.5C21.4389 10.5 22.2 11.2462 22.2 12.1667V13.2778M22.2 13.2778V19.3889M22.2 13.2778C22.2 12.3573 22.9611 11.6111 23.9 11.6111C24.8389 11.6111 25.6 12.3573 25.6 13.2778V16.6111M25.6 16.6111V19.3889" stroke="#797979" stroke-width="2" stroke-linecap="round" stroke-linejoin="round"/>
</svg>
