<svg width="18" height="19" viewBox="0 0 18 19" fill="none" xmlns="http://www.w3.org/2000/svg">
<g id="message-chat-circle">
<path id="Icon" d="M4.57077 8.9216C4.52416 8.62117 4.49997 8.31339 4.49997 8C4.49997 4.68629 7.20394 2 10.5394 2C13.875 2 16.5789 4.68629 16.5789 8C16.5789 8.74855 16.4409 9.46509 16.1889 10.1259C16.1365 10.2631 16.1103 10.3317 16.0984 10.3853C16.0867 10.4384 16.0821 10.4757 16.0808 10.5301C16.0796 10.5849 16.087 10.6454 16.1019 10.7662L16.4038 13.2189C16.4365 13.4844 16.4528 13.6172 16.4087 13.7137C16.37 13.7982 16.3012 13.8654 16.2158 13.9021C16.1183 13.9441 15.986 13.9247 15.7213 13.8859L13.3323 13.5357C13.2076 13.5174 13.1452 13.5083 13.0884 13.5086C13.0322 13.5089 12.9934 13.513 12.9384 13.5246C12.8828 13.5363 12.8118 13.5629 12.6697 13.6161C12.0073 13.8642 11.2893 14 10.5394 14C10.2258 14 9.91775 13.9762 9.617 13.9305M5.72368 17C7.94736 17 9.75 15.1532 9.75 12.875C9.75 10.5968 7.94736 8.75 5.72368 8.75C3.50001 8.75 1.69737 10.5968 1.69737 12.875C1.69737 13.3329 1.77021 13.7735 1.90466 14.185C1.9615 14.359 1.98992 14.446 1.99924 14.5055C2.00898 14.5675 2.01069 14.6023 2.00706 14.665C2.00359 14.7251 1.98856 14.793 1.95851 14.9287L1.5 17L3.7461 16.6932C3.8687 16.6765 3.93 16.6681 3.98353 16.6685C4.03989 16.6689 4.0698 16.6719 4.12508 16.683C4.17758 16.6934 4.25562 16.721 4.4117 16.776C4.82294 16.9212 5.26433 17 5.72368 17Z" stroke="black" stroke-width="1.5" stroke-linecap="round" stroke-linejoin="round"/>
</g>
</svg>
