<svg width="137" height="18" viewBox="0 0 137 18" fill="none" xmlns="http://www.w3.org/2000/svg">
<path d="M0.414101 17V5.46875H0.601601L3.71879 10.4844V17H0.414101ZM0.414101 2.75V0.59375H3.10941L10.8438 13.0625V17H9.27348L0.414101 2.75ZM7.5391 5.32812V0.59375H10.8438V10.3438H10.6563L7.5391 5.32812ZM13.7188 13.3672V7.22656C13.7344 6.46094 14.086 5.71094 14.7735 4.97656C15.6172 4.10156 16.6485 3.65625 17.8672 3.64062V6.59375C17.4141 6.59375 17.1016 6.78906 16.9297 7.17969C16.8829 7.27344 16.8594 7.35938 16.8594 7.4375V8.60938H20.3516V7.46094C20.336 6.88281 19.9297 6.59375 19.1329 6.59375V3.64062C20.2735 3.64062 21.2735 4.03125 22.1329 4.8125C22.8829 5.5 23.2657 6.29688 23.2813 7.20312V11.6328H16.8594V13.3672C16.9688 13.8203 17.3125 14.0703 17.8907 14.1172V17C16.4219 17 15.2579 16.3984 14.3985 15.1953C13.9454 14.5547 13.7188 13.9453 13.7188 13.3672ZM19.1329 17V14.1406C19.9766 14.125 20.5157 13.7266 20.75 12.9453L23.3047 13.9062C23.0704 14.9062 22.4766 15.7109 21.5235 16.3203C20.7891 16.7734 19.9922 17 19.1329 17ZM25.5235 6.66406V3.64062H27.1641V0.21875H30.3047V3.64062H31.8516V6.6875H30.3047V12.8984C30.336 13.4609 30.625 13.75 31.1719 13.7656H31.8516L32.5547 17H31.1485C29.1016 17 27.8516 16.2266 27.3985 14.6797C27.2422 14.1172 27.1641 13.4453 27.1641 12.6641V6.66406H25.5235ZM33.9532 3.64062H37.4454L40.8672 13.7656L39.8125 17H38.0313L33.9532 3.64062ZM39.5313 6.85156L40.5157 3.64062H44.0079L47.4297 13.7656L46.375 17H44.5938L42.2266 9.28906L41.5 11.6328H41.1954L39.5313 6.85156ZM46.0938 6.85156L47.0782 3.64062H50.5704L48.0625 11.6328H47.7579L46.0938 6.85156ZM52.625 13.3672V7.25C52.625 6.48438 52.961 5.73438 53.6329 5C54.4766 4.10938 55.5469 3.65625 56.8438 3.64062V6.6875C56.1407 6.75 55.7657 7.04688 55.7188 7.57812V13.0391C55.75 13.6484 56.125 13.9609 56.8438 13.9766V17.0234C55.3125 17.0234 54.125 16.4062 53.2813 15.1719C52.8438 14.5312 52.625 13.9297 52.625 13.3672ZM57.9219 17.0234V13.9766C58.5782 13.8984 58.9375 13.6016 59 13.0859L58.9766 7.57812C58.8672 7.01562 58.5079 6.71875 57.8985 6.6875V3.64062C59.3672 3.64062 60.5157 4.23438 61.3438 5.42188C61.7813 6.0625 62 6.67188 62 7.25V13.3672C62 14.1484 61.6641 14.9141 60.9922 15.6641C60.1797 16.5547 59.1563 17.0078 57.9219 17.0234ZM64.875 17V3.64062H68.0625V5.11719C68.6094 4.41406 69.3516 3.92969 70.2891 3.66406C70.6172 3.57031 70.9454 3.52344 71.2735 3.52344H72.1172L71.3907 6.66406C70.4063 6.67969 69.5547 7.10938 68.836 7.95312C68.3204 8.5625 68.0625 9.19531 68.0625 9.85156V17H64.875ZM74.336 17V0.21875H77.5704V17H74.336ZM78.25 10.2734L81.1329 3.64062H84.5547L81.6016 10.2734L84.6016 17H81.2032L78.25 10.2734ZM93.4454 17V5.46875H93.6329L96.75 10.4844V17H93.4454ZM93.4454 2.75V0.59375H96.1407L103.875 13.0625V17H102.305L93.4454 2.75ZM100.57 5.32812V0.59375H103.875V10.3438H103.688L100.57 5.32812ZM106.75 13.3672V7.22656C106.766 6.46094 107.117 5.71094 107.805 4.97656C108.648 4.10156 109.68 3.65625 110.898 3.64062V6.59375C110.445 6.59375 110.133 6.78906 109.961 7.17969C109.914 7.27344 109.891 7.35938 109.891 7.4375V8.60938H113.383V7.46094C113.367 6.88281 112.961 6.59375 112.164 6.59375V3.64062C113.305 3.64062 114.305 4.03125 115.164 4.8125C115.914 5.5 116.297 6.29688 116.313 7.20312V11.6328H109.891V13.3672C110 13.8203 110.344 14.0703 110.922 14.1172V17C109.453 17 108.289 16.3984 107.43 15.1953C106.977 14.5547 106.75 13.9453 106.75 13.3672ZM112.164 17V14.1406C113.008 14.125 113.547 13.7266 113.781 12.9453L116.336 13.9062C116.102 14.9062 115.508 15.7109 114.555 16.3203C113.82 16.7734 113.023 17 112.164 17ZM118.414 17L121.344 10.25L118.461 3.64062H121.695L123.102 6.71094L124.461 3.64062H127.719L124.883 10.25L127.789 17H124.578L123.102 13.7422L121.625 17H118.414ZM129.305 6.66406V3.64062H130.945V0.21875H134.086V3.64062H135.633V6.6875H134.086V12.8984C134.117 13.4609 134.406 13.75 134.953 13.7656H135.633L136.336 17H134.93C132.883 17 131.633 16.2266 131.18 14.6797C131.023 14.1172 130.945 13.4453 130.945 12.6641V6.66406H129.305Z" fill="#171717"/>
</svg>
