<svg width="41" height="41" viewBox="0 0 41 41" fill="none" xmlns="http://www.w3.org/2000/svg">
<rect x="0.5" y="0.5" width="40" height="40" rx="15" fill="#EDEDED"/>
<path d="M22.9998 26.3332C22.9998 27.7139 21.8805 28.8332 20.4998 28.8332C19.1191 28.8332 17.9998 27.7139 17.9998 26.3332M21.9969 15.6986C22.3598 15.3237 22.5831 14.8129 22.5831 14.2498C22.5831 13.0992 21.6504 12.1665 20.4998 12.1665C19.3492 12.1665 18.4164 13.0992 18.4164 14.2498C18.4164 14.8129 18.6398 15.3237 19.0027 15.6986M25.4998 19.8332C25.4998 18.6839 24.973 17.5817 24.0353 16.769C23.0976 15.9564 21.8258 15.4998 20.4998 15.4998C19.1737 15.4998 17.9019 15.9564 16.9642 16.769C16.0266 17.5817 15.4998 18.6839 15.4998 19.8332C15.4998 21.7347 15.0282 23.1253 14.4398 24.1204C13.7692 25.2545 13.4339 25.8216 13.4472 25.957C13.4623 26.112 13.4902 26.1609 13.6159 26.2528C13.7257 26.3332 14.2777 26.3332 15.3816 26.3332H25.6179C26.7218 26.3332 27.2738 26.3332 27.3837 26.2528C27.5093 26.1609 27.5372 26.112 27.5524 25.957C27.5656 25.8216 27.2303 25.2545 26.5597 24.1204C25.9713 23.1253 25.4998 21.7347 25.4998 19.8332Z" stroke="#797979" stroke-width="1.5" stroke-linecap="round" stroke-linejoin="round"/>
</svg>
