<svg width="41" height="41" viewBox="0 0 41 41" fill="none" xmlns="http://www.w3.org/2000/svg">
<rect x="0.5" y="0.5" width="40" height="40" rx="15" fill="#EDEDED"/>
<path d="M20.4998 22.9998C21.8805 22.9998 22.9998 21.8805 22.9998 20.4998C22.9998 19.1191 21.8805 17.9998 20.4998 17.9998C19.1191 17.9998 17.9998 19.1191 17.9998 20.4998C17.9998 21.8805 19.1191 22.9998 20.4998 22.9998Z" stroke="#797979" stroke-width="2" stroke-linecap="round" stroke-linejoin="round"/>
<path d="M26.1059 22.7726C26.0051 23.0011 25.975 23.2545 26.0195 23.5003C26.0641 23.746 26.1812 23.9728 26.3559 24.1514L26.4014 24.1968C26.5422 24.3375 26.654 24.5046 26.7302 24.6886C26.8065 24.8725 26.8457 25.0697 26.8457 25.2688C26.8457 25.4679 26.8065 25.6651 26.7302 25.849C26.654 26.0329 26.5422 26.2 26.4014 26.3407C26.2606 26.4816 26.0935 26.5934 25.9096 26.6696C25.7257 26.7459 25.5285 26.7851 25.3294 26.7851C25.1303 26.7851 24.9331 26.7459 24.7492 26.6696C24.5652 26.5934 24.3981 26.4816 24.2574 26.3407L24.212 26.2953C24.0334 26.1206 23.8066 26.0035 23.5609 25.9589C23.3151 25.9144 23.0617 25.9444 22.8332 26.0453C22.6091 26.1413 22.418 26.3008 22.2834 26.504C22.1488 26.7073 22.0766 26.9455 22.0756 27.1892V27.318C22.0756 27.7199 21.916 28.1052 21.6318 28.3894C21.3477 28.6735 20.9623 28.8332 20.5604 28.8332C20.1586 28.8332 19.7732 28.6735 19.4891 28.3894C19.2049 28.1052 19.0453 27.7199 19.0453 27.318V27.2498C19.0394 26.9991 18.9583 26.7559 18.8123 26.5519C18.6664 26.3479 18.4625 26.1925 18.2271 26.1059C17.9986 26.0051 17.7451 25.975 17.4994 26.0195C17.2536 26.0641 17.0269 26.1812 16.8483 26.3559L16.8029 26.4014C16.6622 26.5422 16.495 26.654 16.3111 26.7302C16.1272 26.8065 15.93 26.8457 15.7309 26.8457C15.5318 26.8457 15.3346 26.8065 15.1507 26.7302C14.9667 26.654 14.7996 26.5422 14.6589 26.4014C14.5181 26.2606 14.4063 26.0935 14.33 25.9096C14.2538 25.7257 14.2146 25.5285 14.2146 25.3294C14.2146 25.1303 14.2538 24.9331 14.33 24.7492C14.4063 24.5652 14.5181 24.3981 14.6589 24.2574L14.7044 24.212C14.879 24.0334 14.9962 23.8066 15.0407 23.5609C15.0853 23.3151 15.0552 23.0617 14.9544 22.8332C14.8584 22.6091 14.6989 22.418 14.4956 22.2834C14.2924 22.1488 14.0542 22.0766 13.8104 22.0756H13.6817C13.2798 22.0756 12.8944 21.916 12.6103 21.6318C12.3261 21.3477 12.1665 20.9623 12.1665 20.5604C12.1665 20.1586 12.3261 19.7732 12.6103 19.4891C12.8944 19.2049 13.2798 19.0453 13.6817 19.0453H13.7498C14.0006 19.0394 14.2438 18.9583 14.4478 18.8123C14.6518 18.6664 14.8072 18.4625 14.8938 18.2271C14.9946 17.9986 15.0247 17.7451 14.9801 17.4994C14.9356 17.2536 14.8184 17.0269 14.6438 16.8483L14.5983 16.8029C14.4574 16.6622 14.3457 16.495 14.2694 16.3111C14.1932 16.1272 14.1539 15.93 14.1539 15.7309C14.1539 15.5318 14.1932 15.3346 14.2694 15.1507C14.3457 14.9667 14.4574 14.7996 14.5983 14.6589C14.739 14.5181 14.9061 14.4063 15.0901 14.33C15.274 14.2538 15.4712 14.2146 15.6703 14.2146C15.8694 14.2146 16.0666 14.2538 16.2505 14.33C16.4344 14.4063 16.6015 14.5181 16.7423 14.6589L16.7877 14.7044C16.9663 14.879 17.193 14.9962 17.4388 15.0407C17.6845 15.0853 17.938 15.0552 18.1665 14.9544H18.2271C18.4512 14.8584 18.6423 14.6989 18.7769 14.4956C18.9115 14.2924 18.9837 14.0542 18.9847 13.8104V13.6817C18.9847 13.2798 19.1443 12.8944 19.4285 12.6103C19.7126 12.3261 20.098 12.1665 20.4998 12.1665C20.9017 12.1665 21.2871 12.3261 21.5712 12.6103C21.8554 12.8944 22.015 13.2798 22.015 13.6817V13.7498C22.016 13.9936 22.0882 14.2318 22.2228 14.435C22.3574 14.6383 22.5485 14.7977 22.7726 14.8938C23.0011 14.9946 23.2545 15.0247 23.5003 14.9801C23.746 14.9356 23.9728 14.8184 24.1514 14.6438L24.1968 14.5983C24.3375 14.4574 24.5046 14.3457 24.6886 14.2694C24.8725 14.1932 25.0697 14.1539 25.2688 14.1539C25.4679 14.1539 25.6651 14.1932 25.849 14.2694C26.0329 14.3457 26.2 14.4574 26.3407 14.5983C26.4816 14.739 26.5934 14.9061 26.6696 15.0901C26.7459 15.274 26.7851 15.4712 26.7851 15.6703C26.7851 15.8694 26.7459 16.0666 26.6696 16.2505C26.5934 16.4344 26.4816 16.6015 26.3407 16.7423L26.2953 16.7877C26.1206 16.9663 26.0035 17.193 25.9589 17.4388C25.9144 17.6845 25.9444 17.938 26.0453 18.1665V18.2271C26.1413 18.4512 26.3008 18.6423 26.504 18.7769C26.7073 18.9115 26.9455 18.9837 27.1892 18.9847H27.318C27.7199 18.9847 28.1052 19.1443 28.3894 19.4285C28.6735 19.7126 28.8332 20.098 28.8332 20.4998C28.8332 20.9017 28.6735 21.2871 28.3894 21.5712C28.1052 21.8554 27.7199 22.015 27.318 22.015H27.2498C27.0061 22.016 26.7679 22.0882 26.5646 22.2228C26.3614 22.3574 26.2019 22.5485 26.1059 22.7726Z" stroke="#797979" stroke-width="2" stroke-linecap="round" stroke-linejoin="round"/>
</svg>
