<svg width="21" height="20" viewBox="0 0 21 20" fill="none" xmlns="http://www.w3.org/2000/svg">
<path id="Icon" d="M9.3268 11.3978L19.1541 1.5705M9.44621 11.7049L11.9059 18.0299C12.1226 18.5871 12.231 18.8657 12.3871 18.947C12.5224 19.0176 12.6837 19.0177 12.8191 18.9473C12.9753 18.8661 13.084 18.5877 13.3013 18.0307L19.4694 2.2249C19.6656 1.72213 19.7637 1.47075 19.7101 1.31012C19.6635 1.17062 19.554 1.06114 19.4145 1.01454C19.2539 0.96088 19.0025 1.05898 18.4997 1.25518L2.69389 7.42331C2.13694 7.64065 1.85846 7.74933 1.77731 7.90554C1.70695 8.04096 1.70705 8.20217 1.77756 8.33751C1.8589 8.49362 2.1375 8.60197 2.69471 8.81866L9.01975 11.2784C9.13286 11.3224 9.18941 11.3444 9.23703 11.3783C9.27924 11.4085 9.31616 11.4454 9.34626 11.4876C9.38023 11.5352 9.40222 11.5917 9.44621 11.7049Z" stroke="#252525" stroke-width="1.75" stroke-linecap="round" stroke-linejoin="round"/>
</svg>
