<svg width="55" height="16" viewBox="0 0 55 16" fill="none" xmlns="http://www.w3.org/2000/svg">
<rect width="55" height="16" rx="5" fill="#75DC73"/>
<path d="M10.5423 11L8.66939 4.45455H10.1811L11.2646 9.00249H11.3189L12.5142 4.45455H13.8086L15.0007 9.01207H15.0582L16.1417 4.45455H17.6534L15.7805 11H14.4318L13.1854 6.72053H13.1342L11.891 11H10.5423ZM20.1492 11.0959C19.6528 11.0959 19.2234 10.9904 18.8612 10.7795C18.5011 10.5664 18.2231 10.2702 18.0271 9.89098C17.831 9.50959 17.733 9.06747 17.733 8.56463C17.733 8.05753 17.831 7.61435 18.0271 7.23509C18.2231 6.85369 18.5011 6.55753 18.8612 6.34659C19.2234 6.13352 19.6528 6.02699 20.1492 6.02699C20.6457 6.02699 21.0739 6.13352 21.434 6.34659C21.7962 6.55753 22.0754 6.85369 22.2714 7.23509C22.4674 7.61435 22.5654 8.05753 22.5654 8.56463C22.5654 9.06747 22.4674 9.50959 22.2714 9.89098C22.0754 10.2702 21.7962 10.5664 21.434 10.7795C21.0739 10.9904 20.6457 11.0959 20.1492 11.0959ZM20.1556 10.0412C20.3815 10.0412 20.57 9.97727 20.7213 9.84943C20.8726 9.71946 20.9866 9.54261 21.0633 9.31889C21.1421 9.09517 21.1815 8.84055 21.1815 8.55504C21.1815 8.26953 21.1421 8.01491 21.0633 7.79119C20.9866 7.56747 20.8726 7.39062 20.7213 7.26065C20.57 7.13068 20.3815 7.0657 20.1556 7.0657C19.9276 7.0657 19.7359 7.13068 19.5803 7.26065C19.4269 7.39062 19.3108 7.56747 19.232 7.79119C19.1553 8.01491 19.1169 8.26953 19.1169 8.55504C19.1169 8.84055 19.1553 9.09517 19.232 9.31889C19.3108 9.54261 19.4269 9.71946 19.5803 9.84943C19.7359 9.97727 19.9276 10.0412 20.1556 10.0412ZM23.5407 11V6.09091H24.8607V6.94744H24.9118C25.0013 6.64276 25.1515 6.41264 25.3624 6.2571C25.5734 6.09943 25.8163 6.0206 26.0911 6.0206C26.1593 6.0206 26.2328 6.02486 26.3117 6.03338C26.3905 6.0419 26.4597 6.05362 26.5194 6.06854V7.27663C26.4555 7.25746 26.3671 7.24041 26.2541 7.2255C26.1412 7.21058 26.0379 7.20312 25.9441 7.20312C25.7438 7.20312 25.5649 7.2468 25.4072 7.33416C25.2516 7.41939 25.1281 7.53871 25.0364 7.69212C24.947 7.84553 24.9022 8.02237 24.9022 8.22266V11H23.5407ZM28.547 9.58736L28.5502 7.95419H28.7483L30.3208 6.09091H31.8836L29.7711 8.55824H29.4483L28.547 9.58736ZM27.3133 11V4.45455H28.6748V11H27.3133ZM30.3815 11L28.9369 8.86186L29.8446 7.89986L31.9763 11H30.3815ZM32.6416 11V6.09091H34.0031V11H32.6416ZM33.3256 5.4581C33.1231 5.4581 32.9495 5.39098 32.8046 5.25675C32.6618 5.12038 32.5905 4.95739 32.5905 4.76776C32.5905 4.58026 32.6618 4.41939 32.8046 4.28516C32.9495 4.14879 33.1231 4.08061 33.3256 4.08061C33.528 4.08061 33.7006 4.14879 33.8433 4.28516C33.9882 4.41939 34.0606 4.58026 34.0606 4.76776C34.0606 4.95739 33.9882 5.12038 33.8433 5.25675C33.7006 5.39098 33.528 5.4581 33.3256 5.4581ZM36.5453 8.16193V11H35.1838V6.09091H36.4813V6.95703H36.5389C36.6475 6.67152 36.8297 6.44567 37.0854 6.27947C37.3411 6.11115 37.6511 6.02699 38.0154 6.02699C38.3563 6.02699 38.6536 6.10156 38.9071 6.25071C39.1607 6.39986 39.3578 6.61293 39.4984 6.88991C39.639 7.16477 39.7093 7.4929 39.7093 7.87429V11H38.3478V8.11719C38.3499 7.81676 38.2732 7.58239 38.1177 7.41406C37.9622 7.24361 37.748 7.15838 37.4753 7.15838C37.2921 7.15838 37.1301 7.1978 36.9895 7.27663C36.851 7.35547 36.7423 7.47053 36.6635 7.6218C36.5868 7.77095 36.5474 7.95099 36.5453 8.16193ZM43.084 12.9432C42.643 12.9432 42.2648 12.8825 41.9494 12.761C41.6362 12.6417 41.3869 12.4787 41.2016 12.272C41.0162 12.0653 40.8958 11.8331 40.8404 11.5753L42.0997 11.4059C42.138 11.5039 42.1987 11.5955 42.2818 11.6808C42.3649 11.766 42.4747 11.8342 42.611 11.8853C42.7495 11.9386 42.9178 11.9652 43.116 11.9652C43.4122 11.9652 43.6561 11.8928 43.8479 11.7479C44.0418 11.6051 44.1387 11.3654 44.1387 11.0288V10.1307H44.0812C44.0215 10.267 43.932 10.396 43.8127 10.5174C43.6934 10.6388 43.54 10.7379 43.3525 10.8146C43.165 10.8913 42.9413 10.9297 42.6813 10.9297C42.3127 10.9297 41.9771 10.8445 41.6746 10.674C41.3742 10.5014 41.1345 10.2383 40.9555 9.88459C40.7786 9.52876 40.6902 9.07919 40.6902 8.53587C40.6902 7.97976 40.7808 7.51527 40.9619 7.1424C41.143 6.76953 41.3838 6.49041 41.6842 6.30504C41.9867 6.11967 42.3181 6.02699 42.6781 6.02699C42.953 6.02699 43.1831 6.07386 43.3685 6.16761C43.5539 6.25923 43.703 6.37429 43.8159 6.51278C43.931 6.64915 44.0194 6.78338 44.0812 6.91548H44.1323V6.09091H45.4842V11.0479C45.4842 11.4656 45.382 11.815 45.1774 12.0962C44.9729 12.3775 44.6895 12.5884 44.3273 12.729C43.9672 12.8718 43.5528 12.9432 43.084 12.9432ZM43.1128 9.90696C43.3323 9.90696 43.5176 9.85263 43.6689 9.74396C43.8223 9.63317 43.9395 9.4755 44.0205 9.27095C44.1036 9.06428 44.1451 8.81712 44.1451 8.52947C44.1451 8.24183 44.1046 7.99254 44.0237 7.78161C43.9427 7.56854 43.8255 7.40341 43.6721 7.28622C43.5187 7.16903 43.3323 7.11044 43.1128 7.11044C42.8891 7.11044 42.7005 7.17116 42.5471 7.29261C42.3937 7.41193 42.2776 7.57812 42.1987 7.79119C42.1199 8.00426 42.0805 8.25035 42.0805 8.52947C42.0805 8.81286 42.1199 9.05788 42.1987 9.26456C42.2797 9.46911 42.3958 9.62784 42.5471 9.74077C42.7005 9.85156 42.8891 9.90696 43.1128 9.90696Z" fill="white"/>
</svg>
