<svg width="20" height="21" viewBox="0 0 20 21" fill="none" xmlns="http://www.w3.org/2000/svg">
<g id="line-chart-up-02">
<path id="Icon" d="M17.5 18H3.83333C3.36662 18 3.13327 18 2.95501 17.9092C2.79821 17.8293 2.67072 17.7018 2.59083 17.545C2.5 17.3667 2.5 17.1334 2.5 16.6667V3M17.5 6.33333L12.9714 10.8619C12.8064 11.0269 12.7239 11.1094 12.6288 11.1404C12.5451 11.1675 12.4549 11.1675 12.3712 11.1404C12.2761 11.1094 12.1936 11.0269 12.0286 10.8619L10.4714 9.30474C10.3064 9.13973 10.2239 9.05723 10.1288 9.02632C10.0451 8.99912 9.95493 8.99912 9.87124 9.02632C9.77611 9.05723 9.6936 9.13973 9.5286 9.30474L5.83333 13M17.5 6.33333H14.1667M17.5 6.33333V9.66667" stroke="black" stroke-width="2" stroke-linecap="round" stroke-linejoin="round"/>
</g>
</svg>
