<svg width="20" height="21" viewBox="0 0 20 21" fill="none" xmlns="http://www.w3.org/2000/svg">
<path d="M15.0002 8.00033V3.50033C15.0002 3.03362 15.0002 2.80026 14.9093 2.622C14.8294 2.4652 14.702 2.33771 14.5452 2.25782C14.3669 2.16699 14.1335 2.16699 13.6668 2.16699H6.3335C5.86679 2.16699 5.63343 2.16699 5.45517 2.25782C5.29837 2.33771 5.17089 2.4652 5.09099 2.622C5.00016 2.80026 5.00016 3.03362 5.00016 3.50033V8.00033M8.3335 5.50033V4.66699M11.6668 5.50033V4.66699M7.3335 18.8337H12.6668C14.067 18.8337 14.767 18.8337 15.3018 18.5612C15.7722 18.3215 16.1547 17.939 16.3943 17.4686C16.6668 16.9339 16.6668 16.2338 16.6668 14.8337V10.667C16.6668 9.73357 16.6668 9.26686 16.4852 8.91034C16.3254 8.59674 16.0704 8.34177 15.7568 8.18198C15.4003 8.00033 14.9336 8.00033 14.0002 8.00033H6.00016C5.06674 8.00033 4.60003 8.00033 4.24351 8.18198C3.92991 8.34177 3.67494 8.59674 3.51515 8.91034C3.3335 9.26686 3.3335 9.73357 3.3335 10.667V14.8337C3.3335 16.2338 3.3335 16.9339 3.60598 17.4686C3.84566 17.939 4.22811 18.3215 4.69852 18.5612C5.2333 18.8337 5.93336 18.8337 7.3335 18.8337Z" stroke="black" stroke-width="2" stroke-linecap="round" stroke-linejoin="round"/>
</svg>
