<svg width="20" height="21" viewBox="0 0 20 21" fill="none" xmlns="http://www.w3.org/2000/svg">
<path d="M10.7607 14.6667H16.739M10.7607 14.6667L9.1665 18M10.7607 14.6667L13.1484 9.67419C13.3408 9.27189 13.437 9.07075 13.5686 9.00718C13.6831 8.9519 13.8166 8.9519 13.931 9.00718C14.0627 9.07075 14.1589 9.27189 14.3513 9.67419L16.739 14.6667M16.739 14.6667L18.3332 18M1.6665 4.66667H6.6665M6.6665 4.66667H9.58317M6.6665 4.66667V3M9.58317 4.66667H11.6665M9.58317 4.66667C9.16972 7.13107 8.21033 9.36349 6.80446 11.237M8.33317 12.1667C7.82273 11.9373 7.30204 11.6184 6.80446 11.237M6.80446 11.237C5.67736 10.3731 4.66881 9.18886 4.1665 8M6.80446 11.237C5.46722 13.0191 3.72603 14.4765 1.6665 15.5" stroke="black" stroke-width="2" stroke-linecap="round" stroke-linejoin="round"/>
</svg>
