<svg width="21" height="21" viewBox="0 0 21 21" fill="none" xmlns="http://www.w3.org/2000/svg">
<g id="user-right-02">
<path id="Icon" d="M16.625 7.875L19.25 5.25M19.25 5.25L16.625 2.625M19.25 5.25L14 5.25M14 18.375V17.325C14 15.8549 14 15.1198 13.7139 14.5583C13.4622 14.0643 13.0607 13.6628 12.5667 13.4111C12.0052 13.125 11.2701 13.125 9.8 13.125H5.95C4.47986 13.125 3.74479 13.125 3.18327 13.4111C2.68935 13.6628 2.28778 14.0643 2.03611 14.5583C1.75 15.1198 1.75 15.8549 1.75 17.325V18.375M10.9375 6.5625C10.9375 8.25387 9.56637 9.625 7.875 9.625C6.18363 9.625 4.8125 8.25387 4.8125 6.5625C4.8125 4.87113 6.18363 3.5 7.875 3.5C9.56637 3.5 10.9375 4.87113 10.9375 6.5625Z" stroke="black" stroke-width="2" stroke-linecap="round" stroke-linejoin="round"/>
</g>
</svg>
