<svg width="20" height="21" viewBox="0 0 20 21" fill="none" xmlns="http://www.w3.org/2000/svg">
<g id="file-check-02">
<path id="Icon" d="M16.6668 10.9166V6.16663C16.6668 4.76649 16.6668 4.06643 16.3943 3.53165C16.1547 3.06124 15.7722 2.67879 15.3018 2.43911C14.767 2.16663 14.067 2.16663 12.6668 2.16663H7.3335C5.93336 2.16663 5.2333 2.16663 4.69852 2.43911C4.22811 2.67879 3.84566 3.06124 3.60598 3.53165C3.3335 4.06643 3.3335 4.76649 3.3335 6.16663V14.8333C3.3335 16.2334 3.3335 16.9335 3.60598 17.4683C3.84566 17.9387 4.22811 18.3211 4.69852 18.5608C5.2333 18.8333 5.93336 18.8333 7.3335 18.8333H10.0002M11.6668 9.66663H6.66683M8.3335 13H6.66683M13.3335 6.33329H6.66683M12.0835 16.3333L13.7502 18L17.5002 14.25" stroke="black" stroke-width="2" stroke-linecap="round" stroke-linejoin="round"/>
</g>
</svg>
